<svg xmlns="http://www.w3.org/2000/svg" xmlns:xlink="http://www.w3.org/1999/xlink" version="1.1" id="Layer_1" x="0px" y="0px" width="100px" height="100px" viewBox="5.0 -10.0 100.0 135.0" enable-background="new 0 0 100 100" xml:space="preserve">
<g>
	<g>
		<g>
			<g>
				<path d="M64.256,85.149H15.25c-0.984,0-1.784-0.719-1.784-1.601V16.935c0-0.883,0.799-1.602,1.784-1.602h49.006      c0.95,0,1.668,0.688,1.668,1.602v66.614C65.924,84.446,65.191,85.149,64.256,85.149z M15.008,83.519      c0.032,0.033,0.12,0.088,0.241,0.088h49.006c0.047,0,0.125-0.008,0.125-0.058V16.935c0-0.051-0.078-0.058-0.125-0.058H15.25      c-0.121,0-0.209,0.054-0.241,0.086V83.519z"/>
			</g>
			<g>
				<path d="M81.972,85.149H67.466v-1.543h14.506c0.071,0,0.143-0.051,0.155-0.078l-0.003-48.349      c-0.007-0.055-0.104-0.163-0.162-0.175l-14.496,0.001v-1.542h14.506c0.888,0,1.695,0.818,1.695,1.716v48.37      C83.667,84.416,82.89,85.149,81.972,85.149z"/>
			</g>
			<g>
				<g>
					<path d="M21.952,35.391h-4.242V24.977h4.242V35.391z M18.48,34.621h2.699v-8.873H18.48V34.621z"/>
				</g>
				<g>
					<path d="M28.123,35.391h-4.242V24.977h4.242V35.391z M24.651,34.621h2.701v-8.873h-2.701V34.621z"/>
				</g>
				<g>
					<path d="M34.681,35.391h-4.243V24.977h4.243V35.391z M31.209,34.621h2.699v-8.873h-2.699V34.621z"/>
				</g>
				<g>
					<path d="M40.852,35.391h-4.243V24.977h4.243V35.391z M37.38,34.621h2.7v-8.873h-2.7V34.621z"/>
				</g>
			</g>
			<g>
				<g>
					<path d="M21.952,49.663h-4.242v-10.8h4.242V49.663z M18.48,48.893h2.699v-9.258H18.48V48.893z"/>
				</g>
				<g>
					<path d="M28.123,49.663h-4.242v-10.8h4.242V49.663z M24.651,48.893h2.701v-9.258h-2.701V48.893z"/>
				</g>
				<g>
					<path d="M34.681,49.663h-4.243v-10.8h4.243V49.663z M31.209,48.893h2.699v-9.258h-2.699V48.893z"/>
				</g>
				<g>
					<path d="M40.852,49.663h-4.243v-10.8h4.243V49.663z M37.38,48.893h2.7v-9.258h-2.7V48.893z"/>
				</g>
				<g>
					<path d="M47.41,49.663h-4.244v-10.8h4.244V49.663z M43.938,48.893h2.699v-9.258h-2.699V48.893z"/>
				</g>
				<g>
					<path d="M53.581,49.663h-4.243v-10.8h4.243V49.663z M50.11,48.893h2.698v-9.258H50.11V48.893z"/>
				</g>
				<g>
					<path d="M60.138,49.663h-4.242v-10.8h4.242V49.663z M56.666,48.893h2.701v-9.258h-2.701V48.893z"/>
				</g>
				<g>
					<path d="M47.41,35.391h-4.244v-10.8h4.244V35.391z M43.938,34.621h2.699v-9.257h-2.699V34.621z"/>
				</g>
				<g>
					<path d="M53.581,35.391h-4.243v-10.8h4.243V35.391z M50.11,34.621h2.698v-9.257H50.11V34.621z"/>
				</g>
				<g>
					<path d="M60.138,35.391h-4.242v-10.8h4.242V35.391z M56.666,34.621h2.701v-9.257h-2.701V34.621z"/>
				</g>
			</g>
			<g>
				<g>
					<path d="M21.952,63.549h-4.242V53.134h4.242V63.549z M18.48,62.777h2.699v-8.871H18.48V62.777z"/>
				</g>
				<g>
					<path d="M28.123,63.549h-4.242V53.134h4.242V63.549z M24.651,62.777h2.701v-8.871h-2.701V62.777z"/>
				</g>
				<g>
					<path d="M34.681,63.549h-4.243V53.134h4.243V63.549z M31.209,62.777h2.699v-8.871h-2.699V62.777z"/>
				</g>
				<g>
					<path d="M40.852,63.549h-4.243V53.134h4.243V63.549z M37.38,62.777h2.7v-8.871h-2.7V62.777z"/>
				</g>
				<g>
					<path d="M47.41,63.549h-4.244V53.134h4.244V63.549z M43.938,62.777h2.699v-8.871h-2.699V62.777z"/>
				</g>
				<g>
					<path d="M53.581,63.549h-4.243V53.134h4.243V63.549z M50.11,62.777h2.698v-8.871H50.11V62.777z"/>
				</g>
				<g>
					<path d="M60.138,63.549h-4.242V53.134h4.242V63.549z M56.666,62.777h2.701v-8.871h-2.701V62.777z"/>
				</g>
			</g>
			<g>
				<g>
					<path d="M21.952,77.436h-4.242V67.021h4.242V77.436z M18.48,76.663h2.699v-8.872H18.48V76.663z"/>
				</g>
				<g>
					<path d="M28.123,77.436h-4.242V67.021h4.242V77.436z M24.651,76.663h2.701v-8.872h-2.701V76.663z"/>
				</g>
				<g>
					<path d="M34.681,77.436h-4.243V67.021h4.243V77.436z M31.209,76.663h2.699v-8.872h-2.699V76.663z"/>
				</g>
				<g>
					<path d="M40.852,77.436h-4.243V67.021h4.243V77.436z M37.38,76.663h2.7v-8.872h-2.7V76.663z"/>
				</g>
				<g>
					<path d="M47.41,77.436h-4.244V67.021h4.244V77.436z M43.938,76.663h2.699v-8.872h-2.699V76.663z"/>
				</g>
				<g>
					<path d="M53.581,77.436h-4.243V67.021h4.243V77.436z M50.11,76.663h2.698v-8.872H50.11V76.663z"/>
				</g>
				<g>
					<path d="M60.138,77.436h-4.242V67.021h4.242V77.436z M56.666,76.663h2.701v-8.872h-2.701V76.663z"/>
				</g>
				<g>
					<path d="M72.482,49.663h-4.244v-10.8h4.244V49.663z M69.01,48.893h2.7v-9.258h-2.7V48.893z"/>
				</g>
				<g>
					<path d="M78.653,49.663H74.41v-10.8h4.243V49.663z M75.181,48.893h2.7v-9.258h-2.7V48.893z"/>
				</g>
				<g>
					<path d="M72.482,63.549h-4.244V53.134h4.244V63.549z M69.01,62.777h2.7v-8.871h-2.7V62.777z"/>
				</g>
				<g>
					<path d="M78.653,63.549H74.41V53.134h4.243V63.549z M75.181,62.777h2.7v-8.871h-2.7V62.777z"/>
				</g>
				<g>
					<path d="M72.482,77.436h-4.244V67.021h4.244V77.436z M69.01,76.663h2.7v-8.872h-2.7V76.663z"/>
				</g>
				<g>
					<path d="M78.653,77.436H74.41V67.021h4.243V77.436z M75.181,76.663h2.7v-8.872h-2.7V76.663z"/>
				</g>
			</g>
		</g>
	</g>
	<rect x="5" y="5" fill="none" width="90" height="90"/>
</g>
<text x="0.0" y="117.5" font-size="5.0" font-weight="bold" font-family="Helvetica Neue, Helvetica, Arial-Unicode, Arial, Sans-serif" fill="#282828">Created by Pawe&#322; Pago Gle&#324;</text><text x="0.0" y="122.5" font-size="5.0" font-weight="bold" font-family="Helvetica Neue, Helvetica, Arial-Unicode, Arial, Sans-serif" fill="#282828">from the Noun Project</text></svg>